<?xml version="1.0" encoding="UTF-8" standalone="no"?>
<svg width="45px" height="44px" viewBox="0 0 45 44" version="1.1" xmlns="http://www.w3.org/2000/svg" xmlns:xlink="http://www.w3.org/1999/xlink" xmlns:sketch="http://www.bohemiancoding.com/sketch/ns">
    <!-- Generator: Sketch 3.2 (9961) - http://www.bohemiancoding.com/sketch -->
    <title>icn-twitter</title>
    <desc>Created with Sketch.</desc>
    <defs></defs>
    <g id="Page-1" stroke="none" stroke-width="1" fill="none" fill-rule="evenodd" sketch:type="MSPage">
        <g id="icn-twitter" sketch:type="MSArtboardGroup" transform="translate(0.070312, 0.000000)" fill="#8C8C8C">
            <path d="M41.4,10.3985628 C39.987264,11.0090466 38.468736,11.4216469 36.875328,11.6069991 C38.501568,10.6572329 39.750912,9.1532805 40.3392,7.36110646 C38.816832,8.24073436 37.13088,8.87927351 35.336256,9.22341881 C33.899328,7.7318108 31.85184,6.8 29.585856,6.8 C25.235136,6.8 21.70752,10.2360289 21.70752,14.4742531 C21.70752,15.0757592 21.777216,15.6615544 21.911616,16.2232219 C15.364032,15.9032042 9.558912,12.8477925 5.673408,8.20463651 C4.995264,9.33807157 4.606656,10.6564847 4.606656,12.0629916 C4.606656,14.7256288 5.997504,17.0746075 8.111424,18.4508146 C6.820032,18.410976 5.605248,18.0657085 4.543104,17.4909485 C4.542336,17.5229315 4.542336,17.5549146 4.542336,17.5874588 C4.542336,21.3057243 7.257984,24.4075208 10.862016,25.1126446 C10.20096,25.2880839 9.50496,25.3819757 8.786496,25.3819757 C8.278848,25.3819757 7.785216,25.3337205 7.304256,25.2441305 C8.306688,28.292996 11.216064,30.511985 14.663616,30.5737067 C11.96736,32.6322193 8.570496,33.8591721 4.879296,33.8591721 C4.243392,33.8591721 3.61632,33.8227002 3,33.7518138 C6.486528,35.9292809 10.627584,37.2 15.076608,37.2 C29.567424,37.2 37.49184,25.5057932 37.49184,15.3641679 C37.49184,15.0314318 37.483968,14.700566 37.4688,14.3713836 C39.008256,13.2891962 40.343808,11.9376778 41.4,10.3985628" sketch:type="MSShapeGroup"></path>
        </g>
    </g>
</svg>