<?xml version="1.0" encoding="UTF-8" standalone="no"?>
<svg width="44px" height="44px" viewBox="0 0 44 44" version="1.1" xmlns="http://www.w3.org/2000/svg" xmlns:xlink="http://www.w3.org/1999/xlink" xmlns:sketch="http://www.bohemiancoding.com/sketch/ns">
    <!-- Generator: Sketch 3.2 (9961) - http://www.bohemiancoding.com/sketch -->
    <title>icn-rss</title>
    <desc>Created with Sketch.</desc>
    <defs></defs>
    <g id="Page-1" stroke="none" stroke-width="1" fill="none" fill-rule="evenodd" sketch:type="MSPage">
        <g id="icn-rss" sketch:type="MSArtboardGroup" fill="#8C8C8C">
            <path d="M34.7170278,37.2688444 C34.7771318,36.7873047 36.0916433,25.3696515 27.3609959,16.6390041 C18.6303485,7.9083567 7.2126953,9.2228682 6.7311556,9.2829722 L6.733984,9.3027712 C6.5176093,9.3296413 6.3075986,9.4081301 6.1421356,9.5735931 C5.9469742,9.7687546 5.8493934,10.0247273 5.8493934,10.2806999 L5.8493934,14.5233406 C5.8501005,14.7786061 5.9469742,15.0352859 6.1421356,15.2304474 C6.3747738,15.4630855 6.6894363,15.5401601 6.9934922,15.4949053 L6.9949064,15.5076332 C7.0889516,15.4941982 16.5005429,14.2638324 23.1183552,20.8816448 C29.7361676,27.4994571 28.5058018,36.9110484 28.4923668,37.0050936 L28.5050947,37.0065078 C28.4598399,37.3105637 28.5369145,37.6252262 28.7695526,37.8578644 C28.9647141,38.0530258 29.2213939,38.1498995 29.4766594,38.1506066 L33.7193001,38.1506066 C33.9752727,38.1506066 34.2312454,38.0530258 34.4264069,37.8578644 C34.5918699,37.6924014 34.6703587,37.4823907 34.6972288,37.266016 L34.7170278,37.2688444 Z M23.4047335,37.2561165 C23.4351391,36.9768093 24.1054763,30.3540472 18.8757145,25.1242855 C13.6459528,19.8945237 7.0231907,20.5648609 6.7438835,20.5952665 L6.7460048,20.6143584 C6.5268017,20.6369858 6.3111341,20.7183031 6.1421356,20.8873016 C5.9469742,21.0824631 5.8493934,21.3384358 5.8493934,21.5944084 L5.8493934,25.8370491 C5.8501005,26.0923146 5.9469742,26.3489944 6.1421356,26.5441559 C6.3740666,26.7760869 6.6894363,26.8538686 6.992078,26.8086138 L6.9941993,26.8220488 C7.0380399,26.8149778 11.5090761,26.2429284 14.6330739,29.3669261 C17.7570716,32.4909239 17.1850222,36.9619601 17.1786583,37.0036794 L17.1913862,37.0050936 C17.1461314,37.3091495 17.223206,37.6252262 17.4558441,37.8578644 C17.6510056,38.0530258 17.9076854,38.1498995 18.1629509,38.1506066 L22.4055916,38.1506066 C22.6615642,38.1506066 22.9175369,38.0530258 23.1126984,37.8578644 C23.2816969,37.6888659 23.3630142,37.4731983 23.3856416,37.2539952 L23.4047335,37.2561165 Z M12.0471844,37.4611775 C12.0832468,37.3515759 12.9275323,34.7324524 11.0975399,32.9024601 C9.2675476,31.0724677 6.6484241,31.9167532 6.5388225,31.9528156 L6.5430652,31.9669578 C6.3974012,32.015041 6.2588082,32.0843375 6.1421356,32.2010101 C5.9469742,32.3961716 5.8493934,32.6521443 5.8493934,32.9081169 L5.8493934,37.1507576 C5.8501005,37.4060231 5.9469742,37.6627029 6.1421356,37.8578644 C6.3372971,38.0530258 6.5939769,38.1498995 6.8492424,38.1506066 L11.0918831,38.1506066 C11.3478557,38.1506066 11.6038284,38.0530258 11.7989899,37.8578644 C11.9156625,37.7411918 11.984959,37.6025988 12.0330422,37.4569348 L12.0471844,37.4611775 Z" id="Fill-12" sketch:type="MSShapeGroup"></path>
        </g>
    </g>
</svg>